<?xml version="1.0" encoding="utf-8"?>
<!-- Generator: Adobe Illustrator 18.1.0, SVG Export Plug-In . SVG Version: 6.00 Build 0)  -->
<!DOCTYPE svg PUBLIC "-//W3C//DTD SVG 1.1//EN" "http://www.w3.org/Graphics/SVG/1.1/DTD/svg11.dtd">
<svg version="1.1" id="lion" xmlns="http://www.w3.org/2000/svg" xmlns:xlink="http://www.w3.org/1999/xlink" x="0px" y="0px"
	 viewBox="0 0 500 500" enable-background="new 0 0 500 500" xml:space="preserve">
<g>
	<g>
		<path fill="#ED1C26" d="M343.7,64.2c5.6-15.9,1.9-36.5-17-46.6C356.6,21.7,359.7,51.5,343.7,64.2z"/>
	</g>
	<g>
		<path fill="#ED1C26" d="M243.3,61.2c12.2-13,49.3,2.8,58,7.9c-15.4-4.1-59.3-13.3-53,12.4C243.2,81.6,238.7,66.1,243.3,61.2z"/>
	</g>
	<g>
		<path fill="#ED1C26" d="M65.1,234.6c26.5-75.1,78.1-144.5,179.8-140.8C154.4,110.2,104,166.6,65.1,234.6z"/>
	</g>
	<g>
		<g>
			<path fill="#ED1C26" d="M361.7,123.9c0.5-2.9,1.5-5.5,2.5-7.9l8.9,3.7l-11-21.2l1.7,14.7c-8.6-2.3-19.8-1.8-27.4,1.5
				c14.5,5.2,26.8,12.7,37.7,21.5C372.2,131.6,365.8,127.8,361.7,123.9z M355.5,119.7c-2.7-0.7-5-1.9-7-3.3c2.4,0.1,4-0.7,6.6-0.4
				C355.7,116.7,355.4,118.5,355.5,119.7z"/>
		</g>
	</g>
	<g>
		<path fill="#ED1C26" d="M119.8,200.4c28.3-35.3,71.9-59.8,123.4-68.6c-63,26.1-106.7,69.4-129.2,135
			c143.2,15.6,229.9,89.9,248.1,229.1C330.7,366.4,231.7,296.9,76.7,291C83,253.3,100.7,224.2,119.8,200.4z"/>
	</g>
	<g>
		<path fill="#ED1C26" d="M276.1,230.3c6.5-16.9,20.7-29.6,38.1-36.9c-8.7,7.8-15.4,17.4-19.9,29.4c55.1,17.9,95.6,52.7,99.8,120.1
			C380.4,279.9,343,240.4,276.1,230.3z"/>
	</g>
	<g>
		<path fill="#ED1C26" d="M423.4,258.5c4.2-7.2,4.1-22.8,2.7-35.1l-0.4-2.6c-0.2-0.9-0.4-1.9-1-2.8c-1.7-3.1-5.5-4-8.9-4.6
			c-12.5-1.1-26.1-0.4-38,1.3c-4.5-20,0.6-44.2,13.7-50.5c-1.1,1.4-2.2,2.7-2.5,5c4.8-0.1,9.2,0.2,12.4,1.7
			c-5.8-0.4-9.9,0.8-14.1,2.1c-1,3.5-2.7,8.6-2.5,12c7.7-2.7,19.9-1.9,26.9,0.8c-10.1-0.7-21.5,0.5-28.2,4.6
			c-0.4,4.8-0.8,11.5,0,16.2c10.6,1.4,23.5,1,33.7,2.5c6.3-1,12.8-4.4,15.4-9.9c0.2-0.2,0.5-0.5,0.7-0.7l-4.7,14.3
			c0.9,0.7,1.7,1.5,2.1,2.4l0.1,0.1c0.1,0.2,0.1,0.3,0.2,0.4c0,0,0,0.1,0.1,0.1c0,0.1,0.1,0.2,0.1,0.3l0,0
			c3.7,19.2,0.5,44.5-6.2,57.2c-25.2-17.6-53.9-31.7-89.9-38.5C371.9,234.9,397.5,248.7,423.4,258.5z"/>
	</g>
	<g>
		<path fill="#ED1C26" d="M333.1,55.5c-18-24.1-59.2-42-105.6-36.4c-72.6,8.7-121.7,68.3-155,113.9c17.2-36.2,43.2-69,75.7-94
			c16.1-12.4,38.8-24,58.9-29.9C254.6-4.8,309.8,11.6,328,41.4C330.9,46.1,331.9,50.4,333.1,55.5z"/>
	</g>
	<g>
		<path fill="#ED1C26" d="M236.2,46.4c-54,10.6-101.4,42.5-129.3,76.7C133.4,82.4,174.5,40,236.5,34c26.3-2.5,54.5,7.4,65.5,19.1
			C280.8,47.3,262.3,41.3,236.2,46.4z"/>
	</g>
	<g>
		<path fill="#ED1C26" d="M338.1,68.8c36.4,11.1,61.3,38.1,82,62.1c-10.7-6.9-22.5-12.9-34.8-18.2C375.1,93.1,354.5,79.4,338.1,68.8
			z"/>
	</g>
	<g>
		<path fill="#ED1C26" d="M287.9,108.6c-1-23.7,15.6-33.8,34-35.2C308.8,78.3,287.4,97.1,287.9,108.6z"/>
	</g>
	<g>
		<path fill="#ED1C26" d="M278.4,96.1c2.3-3.8-1.3,3.9-1.7,6.6c-4.7,31.7,15.8,53.8,26.1,72.1C283.8,160.9,260.6,124.8,278.4,96.1z"
			/>
	</g>
	<g>
		<path fill="#ED1C26" d="M439.4,164.1c-2.7,0.8-11.5,1-13.6,2.5c3.2,5.4,7.4,9.7,10.3,15.3c4.3-8.3,8-16,2.5-23.2
			c-1.7-2.3-4.5-5.1-4.8-5.5c-12.8-13.3-25.1-22.5-42.4-33.4c21.1,6.4,40,19.9,52.7,34.5c2.6,2.7,4.9,5.7,7,9
			c-5.2,11.2-8.7,24.1-16.6,32.7c-5.1-12.3-11.3-23.5-19.1-33.1C423,162.1,434.1,161.7,439.4,164.1z"/>
	</g>
	<g>
		<path fill="#ED1C26" d="M417.4,158.5c-1.8,0-3.2,0.4-4.6,0.8c-7.7-10.1-19.7-18.1-28.2-26.1C396.1,140.8,409.4,148.8,417.4,158.5z
			"/>
	</g>
	<g>
		<path fill="#ED1C26" d="M319.8,161.2c15.9,5.6,25.6,17.4,31.7,32.8C345.9,180.9,328.3,173.6,319.8,161.2z"/>
	</g>
	<g>
		<path fill="#ED1C26" d="M204.3,246.1c9.8-36.4,32.4-62.3,64.2-75.4c-19.4,16.7-39.6,32.8-44.3,64.2
			c81.8,27.3,153.1,67.3,151.6,176.5C362.1,312.7,296.4,266.2,204.3,246.1z"/>
	</g>
	<g>
		<path fill="#ED1C26" d="M160,333.9c42.3,6.9,78.3,25,101.1,48.1c-28.5-15-64.1-26.8-103.5-33.2c-39.4-6.4-76.9-6.4-108.7-1.2
			C77.8,332.9,117.7,327.1,160,333.9z"/>
	</g>
</g>
<animate attributeName="opacity"
             values="0;1;0" dur="3s"
             repeatCount="indefinite"/>
</svg>
